<svg xmlns="http://www.w3.org/2000/svg" width="1195.79" height="413.463" viewBox="0 0 1195.79 413.463">
  <path id="Union_5" data-name="Union 5" d="M951.564,377.679l13.415-84.461s13.553,23.495,34.8,38.319c22.17,15.466,55.122,19.51,67.576,6.48,22.573-29.57-103.009-23.062-93.231-112.99,18.033-84.237,97.861-96.089,155.47-86.824,39.825,6.4,66.192,26,66.192,26l-12.521,69.125s-7.183-18.138-23.964-28.912c-18.576-11.928-47-15.955-51.721,2.458-9.121,35.546,82.569,4.81,82.5,103.195-.036,47.323-54.71,97.959-122.721,102.68-5.131.488-10.129.713-15,.713C991.115,413.461,951.564,377.679,951.564,377.679ZM777.681,404.015a206.6,206.6,0,0,1-45.91-4.874c-16.306-3.73-30.722-9.57-42.847-17.356a101.36,101.36,0,0,1-17.988-14.639,95.808,95.808,0,0,1-14.477-19.3,107.171,107.171,0,0,1-10.051-24.467A140.98,140.98,0,0,1,641.7,293.23a156.4,156.4,0,0,1,1.855-28.015,146.979,146.979,0,0,1,7.168-27.654,138.448,138.448,0,0,1,32.135-50.33c15.725-15.772,35.563-28.288,58.964-37.2a235.632,235.632,0,0,1,40.7-11.241,321.992,321.992,0,0,1,48.8-5.037h.511c43.883,0,76,12.6,95.446,37.451a96.368,96.368,0,0,1,16.888,34.785,140.4,140.4,0,0,1,4.483,34.787,178.251,178.251,0,0,1-1.8,26.76c-.954,6.6-1.95,10.664-1.96,10.7H767.526a53.5,53.5,0,0,0-1.045,7.755,65.162,65.162,0,0,0,1.28,18.243,47.944,47.944,0,0,0,20.756,30.548,63.661,63.661,0,0,0,15.251,7.265,67.474,67.474,0,0,0,21.191,3.24,105.779,105.779,0,0,0,31.634-5.36,175.129,175.129,0,0,0,27.952-11.792A205.934,205.934,0,0,0,912.1,310.986l-9.6,50.971c-.057.058-5.716,5.809-17.155,13.034a177.581,177.581,0,0,1-22.16,11.8,220.748,220.748,0,0,1-31.854,11.327,226.465,226.465,0,0,1-24.751,4.218,251.41,251.41,0,0,1-28.885,1.682ZM795.556,198c-4.271,3.865-8.122,9.254-11.45,16.016a98.045,98.045,0,0,0-6.093,16.016c-1.234,4.293-1.79,7.251-1.8,7.28h55.873a91.915,91.915,0,0,0,1.778-15.237,59.6,59.6,0,0,0-.922-13.178,26.976,26.976,0,0,0-4.922-11.669,16.487,16.487,0,0,0-5.82-4.686,20.094,20.094,0,0,0-8.529-1.821h-.256C806.9,190.724,800.894,193.173,795.556,198ZM0,402.455,36.253,199.288H0L8.3,140.37H45.846s7.3-93.038,96.474-126.7c91.429-30.751,183.128,0,183.128,0L313.5,88.034s-29.12-43.106-84.494-25.359c-45.716,16.31-47.507,77.7-47.507,77.7H357.657L310.946,400.8H181.5L220.11,199.288H170L134.865,402.455Zm484.492-1.835-21.065-49.34-36.774,49.34H325.417L442.1,298.969,371.2,141.476H526.1L546.179,189.1l44.848-47.622H682.5l-114.32,96.119L636.6,400.62Z" transform="translate(0 0)" fill="#08544b"/>
</svg>
